<?xml version="1.0" encoding="UTF-8"?>
<svg xmlns="http://www.w3.org/2000/svg" version="1.1" width="48px" height="48px" viewBox="-32 -32 1088 1088">
    <defs>
        <linearGradient id="background-gradient" x1="0%" y1="0%" x2="0%" y2="100%">
            <stop offset="0%" style="stop-color:#f8f080" /> <!-- #f0c410 -->
            <stop offset="100%" style="stop-color:#f8f080" /> <!-- #f0c410 -->
        </linearGradient>
        <linearGradient id="symbol-gradient" x1="0%" y1="0%" x2="0%" y2="100%">
            <stop offset="0%" style="stop-color:#40a33f" />
            <stop offset="100%" style="stop-color:#40a33f" />
        </linearGradient>
        <filter id="background-shadow">
            <feOffset
                result="offsetOut" in="SourceGraphic" dx="0" dy="32" />
            <feColorMatrix
                result="matrixOut" in="offsetOut" type="matrix"
                values="0.15 0 0 0 0 0 0.15 0 0 0 0 0 0.15 0 0 0 0 0 1 0" />
            <feGaussianBlur
                result="blurOut" in="matrixOut" stdDeviation="32" />
            <feBlend
                in="SourceGraphic" in2="blurOut" mode="normal" />
        </filter>
    </defs>

    <!-- background -->
    <circle cx="512" cy="512" r="512" fill="url(#symbol-gradient)" />
    <circle cx="512" cy="512" r="400" fill="url(#background-gradient)" filter="url(#background-shadow)" />

    <!-- plan -->
    <g transform="scale(0.93) translate(42,42)">
        <!-- upper horizontal line -->
        <path
            style="fill:#40a33f"
            d="M 149.625 420 C 143.11709 445.71106 139.24323 472.47699 138.375 500 L 885.625 500 C 884.75677 472.47699 880.88291 445.71106 874.375 420 L 149.625 420 z " />
        <!-- lower horizontal line -->
        <path
            style="fill:#307a2f"
            d="M 138.5625 524 C 139.43073 551.52288 143.30196 578.29012 149.8125 604 L 874.1875 604 C 880.69804 578.29012 884.56927 551.52288 885.4375 524 L 138.5625 524 z " />
        <!-- vertical line -->
        <path
            style="fill:#40a33f"
            d="M 512 138.21875 C 498.48498 138.21875 485.14397 138.94519 472 140.34375 L 472 724.84375 L 552 724.84375 L 552 140.34375 C 538.85603 138.94519 525.51502 138.21875 512 138.21875 z " />
        <path
            style="fill:#40a33f"
            d="M 495.28125 668.3125 L 327 836.59375 C 351.809 850.76368 378.39123 862.17957 406.34375 870.40625 L 551.84375 724.90625 L 495.28125 668.3125 z " />
        <!-- stop -->
        <rect
            style="fill:#40a33f" width="140" height="80" x="550.36188" y="210" />
        <!-- station -->
        <rect
            style="fill:#ffffff;stroke:#2a6b29;stroke-width:15;stroke-linecap:round;stroke-linejoin:round;stroke-miterlimit:4"
            width="120" height="308.41904" x="452" y="357.79047" rx="15" />
    </g>

<!--    <mask id="m">-->
<!--        <rect x="520" y="600" width="300" height="280" rx="80" fill="#AAA"/>-->
<!--        <text x="563" y="795" font-size="150" font-weight="bold" fill="#222">NG</text>-->
<!--    </mask>-->
    <rect x="520" y="600" width="300" height="280" rx="80" mask="url(#m)"/>
    <g fill="#f8f080" transform="translate(552, 618) scale(3.4,4.0)">
        <path
            d="M0 13.35L8.85 13.35L26.50 36.55L23.75 37.50L23.75 13.35L33.25 13.35L33.25 48.40L24.40 48.40L6.80 25.30L9.55 24.35L9.55 48.40L0 48.40L0 13.35ZM65.60 25.20Q63.80 23.45 61.38 22.40Q58.95 21.35 56.65 21.35Q54.75 21.35 53.13 22.07Q51.50 22.80 50.33 24.07Q49.15 25.35 48.48 27.07Q47.80 28.80 47.80 30.85Q47.80 32.90 48.48 34.65Q49.15 36.40 50.35 37.70Q51.55 39 53.20 39.72Q54.85 40.45 56.75 40.45Q58.50 40.45 60.83 39.55Q63.15 38.65 65.10 37.20L71 44.50Q69.10 45.85 66.55 46.90Q64 47.95 61.25 48.52Q58.50 49.10 56 49.10Q51.95 49.10 48.53 47.73Q45.10 46.35 42.53 43.90Q39.95 41.45 38.55 38.10Q37.15 34.75 37.15 30.85Q37.15 26.95 38.60 23.65Q40.05 20.35 42.70 17.87Q45.35 15.40 48.90 14.05Q52.45 12.70 56.70 12.70Q59.40 12.70 62.10 13.35Q64.80 14 67.23 15.20Q69.65 16.40 71.50 18.10L65.60 25.20M62.05 30.25L71 30.25L71 44.50L62.05 44.50L62.05 30.25Z" />
    </g>
</svg>
